<?xml version="1.0" standalone="no"?>
<!DOCTYPE svg PUBLIC "-//W3C//DTD SVG 20010904//EN"
 "http://www.w3.org/TR/2001/REC-SVG-20010904/DTD/svg10.dtd">
<svg version="1.0" xmlns="http://www.w3.org/2000/svg"
 width="128.000000pt" height="128.000000pt" viewBox="0 0 128.000000 128.000000"
 preserveAspectRatio="xMidYMid meet">

<g transform="translate(0.000000,128.000000) scale(0.100000,-0.100000)"
fill="#000000" stroke="none">
<path d="M220 1073 c-53 -62 -114 -189 -134 -280 -44 -201 5 -417 130 -576
l46 -57 64 0 64 0 -44 55 c-61 75 -90 127 -122 220 -24 70 -27 95 -27 205 0
109 3 135 26 205 32 95 69 163 127 228 l42 47 -65 0 -65 0 -42 -47z"/>
<path d="M945 1065 c50 -61 87 -130 117 -215 29 -79 36 -271 14 -365 -22 -91
-74 -196 -131 -265 l-45 -55 57 -3 58 -3 47 52 c99 109 151 260 152 434 0 163
-39 280 -139 413 l-47 62 -64 0 -64 0 45 -55z"/>
<path d="M540 815 l0 -245 43 0 c41 0 45 3 215 173 l173 173 -29 27 -28 27
-139 -140 c-77 -77 -143 -140 -147 -140 -5 0 -8 83 -8 185 l0 185 -40 0 -40 0
0 -245z"/>
</g>
</svg>
